HIERARCHY
ROOT Hips
{
	OFFSET -13.091600 -28.302996 44.698402
	CHANNELS 6 Xposition Yposition Zposition Zrotation Xrotation Yrotation
	JOINT Chest
	{
		OFFSET -0.673000 0.623899 5.369202
		CHANNELS 6 Xposition Yposition Zposition Zrotation Xrotation Yrotation
		JOINT Chest2
		{
			OFFSET 0.000000 0.000000 4.415001
			CHANNELS 6 Xposition Yposition Zposition Zrotation Xrotation Yrotation
			JOINT Neck
			{
				OFFSET 0.000000 0.000002 10.273300
				CHANNELS 6 Xposition Yposition Zposition Zrotation Xrotation Yrotation
				JOINT Head
				{
					OFFSET 0.000000 0.000000 2.173897
					CHANNELS 6 Xposition Yposition Zposition Zrotation Xrotation Yrotation
					End Site
					{
						OFFSET 0.000000 0.000000 9.961800
					}
				}
			}
			JOINT LeftCollar
			{
				OFFSET 2.359900 -0.565201 5.928101
				CHANNELS 6 Xposition Yposition Zposition Zrotation Xrotation Yrotation
				JOINT LeftShoulder
				{
					OFFSET 5.443700 0.000000 0.000000
					CHANNELS 6 Xposition Yposition Zposition Zrotation Xrotation Yrotation
					JOINT LeftElbow
					{
						OFFSET 0.000000 0.000000 -10.615799
						CHANNELS 6 Xposition Yposition Zposition Zrotation Xrotation Yrotation
						JOINT LeftWrist
						{
							OFFSET 0.000000 -0.000002 -13.110302
							CHANNELS 6 Xposition Yposition Zposition Zrotation Xrotation Yrotation
							End Site
							{
								OFFSET 0.000000 0.000000 -2.173901
							}
						}
					}
				}
			}
			JOINT RightCollar
			{
				OFFSET -2.636600 -1.718800 6.889698
				CHANNELS 6 Xposition Yposition Zposition Zrotation Xrotation Yrotation
				JOINT RightShoulder
				{
					OFFSET -4.139101 0.000000 0.000000
					CHANNELS 6 Xposition Yposition Zposition Zrotation Xrotation Yrotation
					JOINT RightElbow
					{
						OFFSET 0.000000 0.000000 -10.471802
						CHANNELS 6 Xposition Yposition Zposition Zrotation Xrotation Yrotation
						JOINT RightWrist
						{
							OFFSET 0.000000 0.000000 -12.281898
							CHANNELS 6 Xposition Yposition Zposition Zrotation Xrotation Yrotation
							End Site
							{
								OFFSET 0.000000 -0.000002 -2.173901
							}
						}
					}
				}
			}
		}
	}
	JOINT LeftHip
	{
		OFFSET 2.273400 0.176701 -2.518002
		CHANNELS 6 Xposition Yposition Zposition Zrotation Xrotation Yrotation
		JOINT LeftKnee
		{
			OFFSET 0.000000 -0.000002 -20.456402
			CHANNELS 6 Xposition Yposition Zposition Zrotation Xrotation Yrotation
			JOINT LeftAnkle
			{
				OFFSET 0.000000 -0.000002 -16.635300
				CHANNELS 6 Xposition Yposition Zposition Zrotation Xrotation Yrotation
				End Site
				{
					OFFSET 0.000000 -8.812399 0.000001
				}
			}
		}
	}
	JOINT RightHip
	{
		OFFSET -1.914800 0.018101 -2.699299
		CHANNELS 6 Xposition Yposition Zposition Zrotation Xrotation Yrotation
		JOINT RightKnee
		{
			OFFSET 0.000000 -0.000002 -20.148901
			CHANNELS 6 Xposition Yposition Zposition Zrotation Xrotation Yrotation
			JOINT RightAnkle
			{
				OFFSET 0.000000 -0.000002 -16.838301
				CHANNELS 6 Xposition Yposition Zposition Zrotation Xrotation Yrotation
				End Site
				{
					OFFSET 0.000000 -8.328398 0.000001
				}
			}
		}
	}
}
MOTION
Frames: 5
Frame Time: 0.041667
-15.563003 8.128901 21.184904 577.061919 18.791531 6.296735 -0.673003 0.623897 5.369211 -11.113474 27.536165 13.517078 0.000001 -0.000002 4.415007 4.315848 -6.539942 -0.860601 -0.000002 -0.000005 10.273304 10.257424 -4.088662 -29.427231 -0.000003 -0.000002 2.173896 -0.925767 -7.206056 -4.004730 2.359900 -0.565203 5.928104 1.930598 3.186683 -17.368416 5.443699 -0.000002 0.000000 -59.183678 -21.862454 -108.956865 0.000000 -0.000001 -10.615792 577.477632 -155.361054 186.604935 -0.000008 -0.000003 -13.110295 -210.214248 -179.757233 151.325464 -2.636600 -1.718809 6.889696 184.910119 -190.303113 165.992557 -4.139098 -0.000002 -0.000004 -2.196526 -351.366132 86.237702 0.000002 -0.000001 -10.471798 -23.349464 -0.005160 1.784192 0.000000 -0.000001 -12.281897 -33.197554 26.344653 39.107758 2.273397 0.176700 -2.518003 -33.720890 -150.403784 -53.033861 0.000003 -0.000005 -20.456402 37.411651 153.229106 -49.387814 -0.000000 -0.000008 -16.635300 77.695499 0.848235 41.568446 -1.914799 0.018102 -2.699300 60.995351 201.993883 109.036778 0.000001 -0.000003 -20.148907 180.171962 -3.595719 -150.668318 -0.000001 0.000001 -16.838301 -65.575888 18.351462 -28.328717
-15.759900 8.114904 21.653500 577.990497 19.794023 6.147136 -0.673002 0.623895 5.369208 -11.346861 27.708131 13.948802 0.000001 -0.000003 4.415001 4.368043 -6.541324 -0.861086 -0.000002 -0.000004 10.273300 9.981186 -3.474672 -29.430107 -0.000006 -0.000005 2.173896 -1.094079 -7.187811 -4.264450 2.359898 -0.565202 5.928103 2.089017 3.048650 -17.360702 5.443696 -0.000000 -0.000002 -60.411842 -21.132513 -109.160500 -0.000003 -0.000002 -10.615795 576.025151 -155.674764 186.263589 -0.000011 -0.000002 -13.110294 -209.796828 -179.756372 151.174476 -2.636606 -1.718805 6.889701 185.313933 -190.773836 166.871384 -4.139106 -0.000002 -0.000003 -1.932048 -350.513369 85.939687 0.000002 -0.000000 -10.471796 -24.701294 -0.052250 1.710628 -0.000006 -0.000000 -12.281897 -34.310882 26.631433 39.225254 2.273398 0.176702 -2.518007 -35.073708 -149.229033 -53.590535 -0.000000 -0.000003 -20.456392 38.646337 152.409347 -50.251495 -0.000001 -0.000004 -16.635300 77.488489 0.378651 41.123008 -1.914803 0.018109 -2.699298 61.548597 202.130228 109.174679 -0.000001 -0.000003 -20.148905 180.435703 -2.566069 -149.379119 -0.000001 -0.000003 -16.838303 -65.131277 17.832936 -26.955939
-15.964401 8.114302 22.138006 578.847713 20.761726 6.116489 -0.673002 0.623894 5.369208 -11.495336 27.916180 14.297203 -0.000001 -0.000002 4.414999 4.407782 -6.563548 -0.863613 -0.000004 -0.000000 10.273300 9.736953 -2.907258 -29.442787 -0.000003 -0.000005 2.173899 -1.236436 -7.170456 -4.496554 2.359900 -0.565201 5.928099 2.183855 3.016204 -17.288998 5.443696 -0.000007 0.000003 -61.671977 -20.600981 -109.459116 -0.000004 -0.000002 -10.615799 573.954566 -155.977342 185.685127 -0.000003 0.000000 -13.110295 -209.388014 -180.105163 150.928398 -2.636604 -1.718803 6.889701 185.918145 -191.316372 166.887995 -4.139099 -0.000006 0.000000 -1.944108 -350.049271 86.558284 -0.000000 -0.000002 -10.471793 -25.966310 -0.128035 1.574887 0.000003 0.000003 -12.281900 -35.710725 27.086304 40.287007 2.273397 0.176701 -2.518004 -36.391760 -148.101601 -54.178447 0.000002 -0.000003 -20.456400 39.748771 151.433668 -51.181418 -0.000004 -0.000006 -16.635296 77.177197 0.006926 40.436014 -1.914802 0.018102 -2.699298 62.162965 202.299302 109.482537 -0.000001 -0.000002 -20.148905 180.440306 -1.532369 -148.047847 0.000001 -0.000002 -16.838299 -64.827620 17.100862 -25.792490
-16.174902 8.126204 22.637800 579.665369 21.682866 6.205056 -0.673001 0.623893 5.369209 -11.569605 28.204482 14.552273 0.000004 0.000000 4.415003 4.424151 -6.589737 -0.866258 0.000002 -0.000001 10.273302 9.515856 -2.401840 -29.443224 -0.000003 -0.000001 2.173903 -1.355376 -7.150354 -4.654802 2.359899 -0.565200 5.928101 2.255137 3.018477 -17.168965 5.443695 0.000002 0.000002 -63.015476 -20.221875 -109.802756 0.000001 -0.000000 -10.615781 571.268280 -156.270084 184.810289 -0.000014 -0.000001 -13.110298 -208.714038 -180.451481 151.172276 -2.636602 -1.718802 6.889703 186.489586 -191.854194 166.748468 -4.139096 -0.000005 -0.000005 -1.887336 -350.030311 87.346570 -0.000005 -0.000007 -10.471799 -26.981093 -0.204231 1.454321 0.000001 -0.000001 -12.281896 -36.547792 27.281326 40.700855 2.273398 0.176697 -2.517999 -37.679012 -147.024043 -54.815557 0.000001 -0.000004 -20.456392 40.823860 150.527274 -52.179514 -0.000003 -0.000006 -16.635303 76.875193 -0.382210 39.732242 -1.914802 0.018104 -2.699293 62.921629 202.598027 109.990382 0.000005 -0.000004 -20.148905 180.173861 -0.398953 -146.702573 -0.000001 -0.000004 -16.838301 -64.392025 16.531332 -24.904798
-16.391102 8.150900 23.149700 580.461769 22.592485 6.399859 -0.673001 0.623895 5.369206 -11.552801 28.522890 14.699937 0.000001 -0.000002 4.415006 4.413296 -6.619382 -0.868914 -0.000002 -0.000005 10.273293 9.379718 -1.983327 -29.476416 -0.000001 -0.000007 2.173900 -1.399927 -7.124414 -4.734837 2.359896 -0.565204 5.928094 2.024902 3.284430 -17.107237 5.443696 0.000004 -0.000004 -63.835979 -19.908610 -110.269224 -0.000002 0.000002 -10.615788 568.815313 -156.492502 184.118568 -0.000005 -0.000007 -13.110298 -208.224901 -180.858833 151.659638 -2.636604 -1.718812 6.889694 186.952646 -192.578850 166.578574 -4.139098 -0.000003 -0.000002 -1.751483 -350.904274 88.132178 -0.000000 -0.000001 -10.471797 -27.487938 -0.381491 1.356691 -0.000002 -0.000003 -12.281897 -36.506374 27.387202 40.217499 2.273398 0.176705 -2.518005 -38.945657 -146.020046 -55.498453 0.000002 -0.000004 -20.456394 41.845110 149.690317 -53.232418 -0.000003 -0.000007 -16.635302 76.519962 -0.827972 39.057542 -1.914801 0.018102 -2.699298 63.803160 202.988728 110.669159 0.000001 -0.000002 -20.148905 179.736182 0.914033 -145.368870 -0.000001 -0.000002 -16.838305 -63.925885 15.875897 -24.138092
